<?xml version="1.0" encoding="UTF-8"?>
<svg id="Capa_1" data-name="Capa 1" xmlns="http://www.w3.org/2000/svg" viewBox="0 0 461.07 85.07">
  <path id="Trazado_304" data-name="Trazado 304" d="M388.15,23.06c.13-5.89-4.53-10.77-10.42-10.9-.04,0-.09,0-.13,0h-14.42c-5.98,.05-10.78,4.93-10.73,10.9v26.8c-.04,5.97,4.76,10.85,10.73,10.9h24.97v12.16h-23.65v12.15h23.65c6.71,0,12.15-5.44,12.15-12.15v-12.15h-12.15v-12.15h-23.74V24.31h23.74v24.31h12.15V12.16h-12.15v10.9Z" style="fill: #181917;"/>
  <path id="Trazado_305" data-name="Trazado 305" d="M315.99,12.15h-13.4c-6.02,0-10.9,4.88-10.91,10.89h0v1.26h36.46V12.15h-12.15Z" style="fill: #181917;"/>
  <path id="Trazado_306" data-name="Trazado 306" d="M328.14,36.46h-25.56c-6.02,0-10.9,4.88-10.91,10.89h0v14.66c0,6.02,4.88,10.9,10.9,10.9h14.66c6.02,0,10.9-4.88,10.91-10.89h0s0,10.89,0,10.89h12.15V24.31h-12.15v12.15Zm0,24.31h-24.31v-12.15h24.31v12.15Z" style="fill: #181917;"/>
  <path id="Trazado_307" data-name="Trazado 307" d="M12.15,36.46V0H0V60.77H12.15v-24.31Z" style="fill: #181917;"/>
  <path id="Trazado_308" data-name="Trazado 308" d="M48.61,60.77h0c0,6.71,5.44,12.15,12.15,12.15h24.31c6.71,0,12.15-5.44,12.15-12.15h0s-36.46,0-36.46,0v-12.15h-12.16v12.15Z" style="fill: #181917;"/>
  <path id="Trazado_309" data-name="Trazado 309" d="M85.08,12.15h-24.3c-6.71,0-12.15,5.44-12.15,12.15h0v12.15h12.15v-12.15h24.31v12.15h-24.31v12.16h24.31c6.71,0,12.15-5.44,12.15-12.15h0v-12.16c0-6.71-5.44-12.15-12.15-12.15h0" style="fill: #181917;"/>
  <path id="Trazado_310" data-name="Trazado 310" d="M182.3,60.77h0c0,6.71,5.44,12.15,12.15,12.15h24.31c6.71,0,12.15-5.44,12.15-12.15h0s-36.46,0-36.46,0v-12.15h-12.15v12.15Z" style="fill: #181917;"/>
  <path id="Trazado_311" data-name="Trazado 311" d="M218.76,12.15h-24.31c-6.71,0-12.15,5.44-12.15,12.15h0v12.15h12.15v-12.15h24.31v12.15h-24.31v12.16h24.31c6.71,0,12.15-5.44,12.15-12.15h0v-12.16c0-6.71-5.44-12.15-12.15-12.15h0" style="fill: #181917;"/>
  <path id="Trazado_312" data-name="Trazado 312" d="M412.46,60.77h0c0,6.71,5.44,12.15,12.15,12.15h24.31c6.71,0,12.15-5.44,12.15-12.15h-36.46v-12.15h-12.15v12.15Z" style="fill: #181917;"/>
  <path id="Trazado_313" data-name="Trazado 313" d="M448.92,12.15h-24.31c-6.71,0-12.15,5.44-12.15,12.15v12.15h12.15v-12.15h24.31v12.15h-24.31v12.16h24.31c6.71,0,12.15-5.44,12.15-12.15v-12.16c0-6.71-5.44-12.15-12.15-12.15" style="fill: #181917;"/>
  <path id="Trazado_314" data-name="Trazado 314" d="M12.15,60.77v12.15h24.31v-12.15H12.15Z" style="fill: #181917;"/>
  <path id="Trazado_315" data-name="Trazado 315" d="M255.22,12.15v12.15h24.31V12.15h-24.31Z" style="fill: #181917;"/>
  <path id="Trazado_316" data-name="Trazado 316" d="M243.07,36.46v36.46h12.15V24.31h-12.15v12.15Z" style="fill: #181917;"/>
  <path id="Trazado_317" data-name="Trazado 317" d="M141.26,59.09L122.57,12.32l-13.19-.17,24.3,60.77h15.15l24.31-60.77h-13.05l-18.83,46.94Z" style="fill: #181917;"/>
</svg>